<?xml version="1.0" standalone="no"?>
<!DOCTYPE svg PUBLIC "-//W3C//DTD SVG 20010904//EN"
 "http://www.w3.org/TR/2001/REC-SVG-20010904/DTD/svg10.dtd">
<svg version="1.0" xmlns="http://www.w3.org/2000/svg"
 width="1000.000000pt" height="1000.000000pt" viewBox="0 0 1000.000000 1000.000000"
 preserveAspectRatio="xMidYMid meet">
<metadata>
Created by potrace 1.11, written by Peter Selinger 2001-2013
</metadata>
<g transform="translate(0.000000,1000.000000) scale(0.100000,-0.100000)"
fill="#000000" stroke="none">
<path d="M4815 9949 c-435 -63 -820 -390 -959 -814 -56 -172 -72 -407 -41
-587 81 -462 422 -831 882 -955 91 -25 113 -27 303 -27 190 0 212 2 303 27
463 125 808 501 882 962 88 539 -182 1061 -668 1290 -107 51 -232 89 -341 104
-89 13 -274 12 -361 0z"/>
<path d="M925 7831 c-192 -55 -354 -214 -409 -400 -37 -127 -28 -295 24 -416
29 -68 93 -157 149 -207 92 -83 165 -113 438 -178 922 -219 1787 -389 2373
-465 107 -14 218 -29 245 -33 l50 -7 -3 -230 c-18 -1426 -127 -2598 -317
-3428 -101 -438 -279 -977 -495 -1497 -92 -223 -106 -307 -75 -455 47 -224
245 -423 463 -465 86 -17 250 -8 325 19 129 45 227 119 300 228 46 68 143 301
302 728 236 632 382 1198 492 1905 l18 115 195 0 195 0 18 -115 c106 -678 238
-1203 453 -1798 156 -431 291 -762 341 -835 107 -158 261 -243 460 -254 195
-11 323 37 459 172 93 92 144 183 169 300 31 148 17 232 -75 455 -216 520
-394 1059 -495 1497 -190 831 -298 2000 -317 3428 l-3 230 50 7 c28 4 138 19
245 33 586 76 1451 246 2373 465 273 65 346 95 438 178 136 122 210 312 195
496 -13 151 -68 270 -175 376 -115 114 -253 170 -420 170 -81 0 -146 -12 -544
-104 -1298 -300 -2086 -430 -2891 -477 -229 -13 -941 -7 -1136 10 -837 74
-1501 188 -2707 467 -416 96 -460 104 -550 103 -61 0 -121 -7 -158 -18z"/>
</g>
</svg>
