<svg version="1.1"
     xmlns="http://www.w3.org/2000/svg"
     width="100px" height="100px"
     viewBox="0 0 100 100">

    <path d="M86.3,80.2c0,2.3-1.9,4.2-4.2,4.2H17.9c-2.3,0-4.2-1.9-4.2-4.2v-14c0-2.3,1.9-4.2,4.2-4.2h18.6c1.2,3.2,4.3,5.6,7.9,5.6
		h11.2c3.6,0,6.7-2.4,7.9-5.6h18.6c2.3,0,4.2,1.9,4.2,4.2V80.2z M69.5,39.7H58.4v19.5c0,1.5-1.3,2.8-2.8,2.8H44.4
		c-1.5,0-2.8-1.3-2.8-2.8V39.7H30.5c-1.1,0-2.1-0.7-2.6-1.7c-0.4-1-0.2-2.2,0.6-3L48,15.4c0.5-0.6,1.3-0.8,2-0.8s1.4,0.3,2,0.8
		l19.5,19.5c0.8,0.8,1,2,0.6,3C71.7,39,70.7,39.7,69.5,39.7z M66.8,73.2c-1.5,0-2.8,1.3-2.8,2.8s1.3,2.8,2.8,2.8s2.8-1.3,2.8-2.8
		S68.3,73.2,66.8,73.2z M77.9,73.2c-1.5,0-2.8,1.3-2.8,2.8s1.3,2.8,2.8,2.8s2.8-1.3,2.8-2.8S79.4,73.2,77.9,73.2z"/>

</svg>
