<svg version="1.1"
     xmlns="http://www.w3.org/2000/svg">

    <symbol id="circle" viewBox="0 0 100 100">
        <path d="M50,84.4c-18.5,0-33.6-15-33.6-33.6c0-18.5,15-33.6,33.6-33.6c18.5,0,33.6,15,33.6,33.6C83.5,69.4,68.5,84.4,50,84.4z
		 M50,27.1c-13.1,0-23.8,10.7-23.8,23.8C26.2,64,36.9,74.6,50,74.6c13.1,0,23.8-10.7,23.8-23.8C73.8,37.8,63.1,27.1,50,27.1z
		 M66.8,53.3L43,67.3c-0.4,0.3-0.9,0.4-1.4,0.4s-1-0.1-1.4-0.3c-0.9-0.5-1.4-1.4-1.4-2.4v-28c0-1,0.5-1.9,1.4-2.4
		c0.9-0.5,2-0.5,2.8,0l23.8,14c0.9,0.5,1.4,1.4,1.4,2.4C68.2,51.9,67.6,52.8,66.8,53.3z"/>
    </symbol>


    <symbol id="no-space" viewBox="0 0 100 100">
        <path d="M50,99.8C23.2,99.8,1.5,78,1.5,51.3S23.2,2.8,50,2.8c26.8,0,48.5,21.7,48.5,48.5S76.8,99.8,50,99.8z M50,16.9
		c-18.9,0-34.4,15.4-34.4,34.4c0,18.9,15.4,34.4,34.4,34.4c18.9,0,34.4-15.4,34.4-34.4C84.4,32.3,68.9,16.9,50,16.9z M74.3,54.7
		L39.9,74.9c-0.6,0.4-1.3,0.6-2,0.6s-1.4-0.2-2-0.5c-1.3-0.8-2-2.1-2-3.5V31.1c0-1.5,0.8-2.8,2-3.5c1.3-0.7,2.8-0.7,4,0.1l34.4,20.2
		c1.3,0.7,2,2,2,3.5C76.3,52.7,75.5,54,74.3,54.7z"/>
    </symbol>

</svg>
