<svg version="1.1"
	 xmlns="http://www.w3.org/2000/svg"
	 width="100px" height="100px"
	 viewBox="0 0 100 100">
	<path d="M79.1,57.4L51.9,83.6c-0.5,0.5-1.2,0.8-1.9,0.8s-1.4-0.3-1.9-0.8L20.9,57.3C20.5,57,11,48.3,11,37.8
		c0-12.8,7.8-20.4,20.8-20.4c7.6,0,14.8,6,18.2,9.4c3.4-3.4,10.6-9.4,18.2-9.4c13,0,20.8,7.6,20.8,20.4C89,48.3,79.5,57,79.1,57.4z
		 M68.2,23c-6.5,0-13.8,7-16.1,9.7c-1,1.3-3.2,1.3-4.3,0C45.6,30,38.3,23,31.8,23c-7,0-15.3,2.6-15.3,14.8c0,8,8.1,15.4,8.1,15.5
		L50,77.7l25.3-24.4c0.1-0.1,8.2-7.5,8.2-15.5C83.5,25.6,75.2,23,68.2,23z"/>
</svg>
