<?xml version="1.0" standalone="no"?>
<!DOCTYPE svg PUBLIC "-//W3C//DTD SVG 20010904//EN"
 "http://www.w3.org/TR/2001/REC-SVG-20010904/DTD/svg10.dtd">
<svg version="1.0" xmlns="http://www.w3.org/2000/svg"
 width="754.000000pt" height="754.000000pt" viewBox="0 0 754.000000 754.000000"
 preserveAspectRatio="xMidYMid meet">
<metadata>
Created by potrace 1.11, written by Peter Selinger 2001-2013
</metadata>
<g transform="translate(0.000000,754.000000) scale(0.100000,-0.100000)"
fill="#000000" stroke="none">
<path d="M3575 7529 c-1648 -81 -3055 -1243 -3459 -2854 -53 -210 -106 -599
-106 -772 l0 -63 625 0 625 0 0 73 c1 213 73 543 175 797 339 846 1102 1433
2025 1561 121 17 508 17 615 1 141 -23 280 -51 371 -77 399 -115 759 -324
1074 -624 l95 -90 -305 -306 -305 -305 993 0 992 0 0 992 0 993 -247 -247
-248 -247 -107 104 c-767 740 -1763 1116 -2813 1064z"/>
<path d="M3213 4750 c-65 -39 -64 -22 -61 -1019 l3 -893 28 -24 c34 -29 60
-30 131 -5 69 24 1655 906 1679 933 24 28 22 70 -5 95 -33 30 -1583 893 -1643
915 -65 23 -93 22 -132 -2z"/>
<path d="M6267 3617 c-14 -220 -66 -475 -140 -677 -324 -891 -1104 -1519
-2042 -1645 -145 -20 -458 -23 -600 -5 -470 56 -914 240 -1275 528 -106 84
-280 250 -280 266 0 6 134 145 297 308 l298 298 -998 0 -997 0 0 -997 0 -998
248 248 c136 136 251 247 256 247 5 0 59 -48 120 -108 837 -813 1993 -1188
3151 -1021 1308 188 2429 1064 2942 2298 147 356 249 793 268 1156 3 61 8 131
11 158 l5 47 -629 0 -629 0 -6 -103z"/>
</g>
</svg>
