<svg version="1.1"
	 xmlns="http://www.w3.org/2000/svg"
	 width="100px" height="100px"
	 viewBox="0 0 100 100">
<style type="text/css">
	.svg-plus{fill:#14568C;}
</style>
	<path class="svg-plus" d="M50,92.8c-23.1,0-41.8-18.7-41.8-41.8S26.9,9.3,50,9.3c23.1,0,41.8,18.7,41.8,41.8S73.1,92.8,50,92.8z
		 M74.4,47.6c0-1.9-1.6-3.5-3.5-3.5H57V30.2c0-1.9-1.6-3.5-3.5-3.5h-7c-1.9,0-3.5,1.6-3.5,3.5v13.9H29.1c-1.9,0-3.5,1.6-3.5,3.5v7
		c0,1.9,1.6,3.5,3.5,3.5H43V72c0,1.9,1.6,3.5,3.5,3.5h7c1.9,0,3.5-1.6,3.5-3.5V58h13.9c1.9,0,3.5-1.6,3.5-3.5V47.6z"/>
</svg>
