<?xml version="1.0" encoding="utf-8"?>
<!-- Generator: Adobe Illustrator 21.0.2, SVG Export Plug-In . SVG Version: 6.00 Build 0)  -->
<svg version="1.1" id="Layer_1" xmlns="http://www.w3.org/2000/svg" xmlns:xlink="http://www.w3.org/1999/xlink" x="0px" y="0px"
	 width="100px" height="100px" viewBox="0 0 100 100" style="enable-background:new 0 0 100 100;" xml:space="preserve">
<g>
	<path d="M89.9,44v13.3c0,2.5-2,4.4-4.4,4.4v5.5c0,3-2.5,5.5-5.5,5.5H15.6c-3,0-5.5-2.5-5.5-5.5V34.1c0-3,2.5-5.5,5.5-5.5h64.3
		c3,0,5.5,2.5,5.5,5.5v5.5C88,39.6,89.9,41.6,89.9,44z M85.5,44h-4.4v-10c0-0.6-0.5-1.1-1.1-1.1H15.6c-0.6,0-1.1,0.5-1.1,1.1v33.3
		c0,0.6,0.5,1.1,1.1,1.1h64.3c0.6,0,1.1-0.5,1.1-1.1v-10h4.4V44z M19,37.4h31V64H19V37.4z"/>
</g>
<g>
</g>
<g>
</g>
<g>
</g>
<g>
</g>
<g>
</g>
<g>
</g>
</svg>
