<?xml version="1.0" encoding="utf-8"?>
<!-- Generator: Adobe Illustrator 21.0.2, SVG Export Plug-In . SVG Version: 6.00 Build 0)  -->
<svg version="1.1" id="Layer_1" xmlns="http://www.w3.org/2000/svg" xmlns:xlink="http://www.w3.org/1999/xlink" x="0px" y="0px"
	 width="100px" height="100px" viewBox="0 0 100 100" style="enable-background:new 0 0 100 100;" xml:space="preserve">
<g>
	<path d="M50,84.2c-18.4,0-33.4-14.9-33.4-33.4S31.6,17.5,50,17.5c18.4,0,33.4,14.9,33.4,33.4S68.4,84.2,50,84.2z M71.7,57
		c1.1-1.1,1.1-2.8,0-3.9L52,33.4c-1.1-1.1-2.8-1.1-3.9,0L28.3,53.1c-1.1,1.1-1.1,2.8,0,3.9l4.4,4.4c1.1,1.1,2.8,1.1,3.9,0L50,48.1
		l13.3,13.3c1.1,1.1,2.8,1.1,3.9,0L71.7,57z"/>
</g>
<g>
</g>
<g>
</g>
<g>
</g>
<g>
</g>
<g>
</g>
<g>
</g>
</svg>
