<?xml version="1.0" standalone="no"?>
<!DOCTYPE svg PUBLIC "-//W3C//DTD SVG 20010904//EN"
 "http://www.w3.org/TR/2001/REC-SVG-20010904/DTD/svg10.dtd">
<svg version="1.0" xmlns="http://www.w3.org/2000/svg"
 width="2000.000000pt" height="2000.000000pt" viewBox="0 0 2000.000000 2000.000000"
 preserveAspectRatio="xMidYMid meet">
<metadata>
Created by potrace 1.11, written by Peter Selinger 2001-2013
</metadata>
<g transform="translate(0.000000,2000.000000) scale(0.100000,-0.100000)"
fill="#000000" stroke="none">
<path d="M3950 19946 c-19 -8 -105 -47 -190 -88 -85 -41 -400 -191 -699 -334
-602 -286 -614 -294 -669 -411 -23 -50 -27 -71 -27 -148 l0 -90 177 -370 c97
-203 213 -445 257 -537 l80 -168 -422 0 c-458 0 -483 -2 -590 -56 -64 -33
-173 -142 -209 -210 -15 -28 -34 -77 -43 -109 -13 -53 -15 -911 -15 -8125 0
-7214 2 -8072 15 -8125 23 -87 62 -152 135 -226 70 -71 137 -111 227 -134 50
-13 994 -15 8023 -15 7029 0 7973 2 8023 15 90 23 157 62 228 134 73 73 123
163 139 250 7 36 10 2753 10 8110 0 7206 -2 8063 -15 8116 -40 153 -159 285
-314 347 -55 23 -62 23 -638 28 l-582 5 248 520 c158 331 253 541 260 577 23
109 -22 244 -106 318 -25 22 -89 61 -142 86 -662 319 -1297 620 -1341 636
-119 43 -282 0 -367 -96 -28 -32 -164 -306 -515 -1042 l-478 -999 -4546 0
-4547 0 -473 989 c-260 544 -486 1008 -502 1032 -33 46 -95 92 -160 117 -51
20 -181 22 -232 3z m268 -1476 l320 -670 -440 2 -440 3 -234 490 c-129 269
-234 494 -234 500 0 8 678 341 701 344 3 1 150 -301 327 -669z m11972 495
c188 -90 344 -166 347 -168 2 -3 -103 -228 -233 -501 l-237 -496 -439 0 -438
0 18 38 c10 20 153 319 318 664 164 346 304 628 310 628 6 0 165 -74 354 -165z
m1210 -9665 l0 -7500 -7400 0 -7400 0 0 7500 0 7500 7400 0 7400 0 0 -7500z"/>
<path d="M6270 15339 c-885 -97 -1660 -526 -2169 -1199 -299 -397 -493 -888
-542 -1374 -15 -152 -6 -525 15 -659 73 -447 241 -855 501 -1212 180 -247 417
-480 685 -672 340 -244 788 -434 1218 -517 238 -46 303 -51 622 -51 200 0 338
5 400 13 724 102 1322 389 1813 869 245 240 409 466 562 778 128 259 211 529
257 830 18 122 18 588 0 710 -62 409 -215 815 -430 1140 -428 645 -1107 1105
-1887 1280 -246 55 -359 67 -670 70 -159 2 -328 -1 -375 -6z m610 -710 c936
-102 1733 -730 1980 -1561 64 -216 75 -299 75 -573 -1 -232 -3 -259 -28 -376
-108 -506 -386 -942 -807 -1263 -466 -355 -1046 -529 -1647 -495 -1073 62
-1950 776 -2160 1758 -26 118 -27 143 -28 376 0 221 3 263 23 362 64 316 183
586 373 847 93 128 313 348 447 449 500 375 1134 545 1772 476z"/>
<path d="M6514 13536 c-298 -68 -540 -294 -634 -591 -35 -110 -40 -314 -10
-442 57 -245 219 -451 445 -563 148 -73 244 -93 420 -87 159 5 240 27 376 99
205 109 365 319 420 553 28 120 23 331 -11 440 -85 273 -300 488 -575 575 -90
29 -335 38 -431 16z m263 -716 c87 -52 83 -198 -6 -245 -98 -50 -211 16 -211
123 0 85 56 142 140 142 27 0 58 -8 77 -20z"/>
<path d="M13170 15339 c-885 -97 -1660 -526 -2169 -1199 -299 -397 -493 -888
-542 -1374 -15 -152 -6 -525 15 -659 73 -447 241 -855 501 -1212 180 -247 417
-480 685 -672 340 -244 788 -434 1218 -517 238 -46 303 -51 622 -51 200 0 338
5 400 13 724 102 1322 389 1813 869 324 317 563 696 701 1113 102 310 131 495
131 850 0 277 -6 344 -52 565 -60 293 -219 671 -391 930 -428 645 -1107 1105
-1887 1280 -246 55 -359 67 -670 70 -159 2 -328 -1 -375 -6z m610 -710 c936
-102 1733 -730 1980 -1561 64 -216 75 -299 75 -573 -1 -232 -3 -259 -28 -376
-108 -506 -386 -942 -807 -1263 -466 -355 -1046 -529 -1647 -495 -1073 62
-1950 776 -2160 1758 -26 118 -27 143 -28 376 0 221 3 263 23 362 64 316 183
586 373 847 93 128 313 348 447 449 500 375 1134 545 1772 476z"/>
<path d="M13514 13536 c-298 -68 -540 -294 -634 -591 -35 -110 -40 -314 -10
-442 57 -245 219 -451 445 -563 148 -73 244 -93 420 -87 159 5 240 27 376 99
205 109 365 319 420 553 28 120 23 331 -11 440 -85 273 -300 488 -575 575 -90
29 -335 38 -431 16z m263 -716 c87 -52 83 -198 -6 -245 -98 -50 -211 16 -211
123 0 85 56 142 140 142 27 0 58 -8 77 -20z"/>
<path d="M4269 7927 c-73 -30 -121 -68 -158 -124 -66 -99 -61 89 -59 -2368 l3
-2230 27 -57 c32 -69 92 -129 166 -165 l57 -28 5795 0 5795 0 57 28 c74 36
134 96 166 165 l27 57 0 2245 0 2245 -26 56 c-34 72 -96 134 -168 168 l-56 26
-5785 2 -5785 3 -56 -23z m1881 -1307 l0 -630 -700 0 -700 0 0 630 0 630 700
0 700 0 0 -630z m2210 0 l0 -630 -755 0 -755 0 0 630 0 630 755 0 755 0 0
-630z m2280 0 l0 -630 -790 0 -790 0 0 630 0 630 790 0 790 0 0 -630z m2270 0
l0 -630 -785 0 -785 0 0 630 0 630 785 0 785 0 0 -630z m2540 0 l0 -630 -920
0 -920 0 0 630 0 630 920 0 920 0 0 -630z m-9300 -2150 l0 -820 -700 0 -700 0
0 820 0 820 700 0 700 0 0 -820z m2210 0 l0 -820 -755 0 -755 0 0 820 0 820
755 0 755 0 0 -820z m2280 0 l0 -820 -790 0 -790 0 0 820 0 820 790 0 790 0 0
-820z m2270 0 l0 -820 -785 0 -785 0 0 820 0 820 785 0 785 0 0 -820z m2540 0
l0 -820 -920 0 -920 0 0 820 0 820 920 0 920 0 0 -820z"/>
</g>
</svg>
