<?xml version="1.0" standalone="no"?>
<!DOCTYPE svg PUBLIC "-//W3C//DTD SVG 20010904//EN"
 "http://www.w3.org/TR/2001/REC-SVG-20010904/DTD/svg10.dtd">
<svg version="1.0" xmlns="http://www.w3.org/2000/svg"
 width="1000.000000pt" height="1000.000000pt" viewBox="0 0 1000.000000 1000.000000"
 preserveAspectRatio="xMidYMid meet">
<metadata>
Created by potrace 1.11, written by Peter Selinger 2001-2013
</metadata>
<g transform="translate(0.000000,1000.000000) scale(0.100000,-0.100000)"
fill="#000000" stroke="none">
<path d="M4780 9945 c-606 -111 -1033 -671 -979 -1288 25 -290 136 -531 339
-737 242 -246 519 -363 860 -363 335 0 614 115 851 352 580 577 423 1559 -307
1925 -110 55 -220 92 -333 111 -104 18 -329 18 -431 0z"/>
<path d="M999 7850 c-342 -54 -566 -382 -494 -723 40 -189 181 -358 356 -427
96 -38 978 -239 1539 -350 486 -97 1050 -189 1323 -216 l67 -7 0 -201 c0 -110
-5 -340 -10 -511 -50 -1543 -175 -2550 -425 -3400 -77 -263 -231 -694 -346
-972 -89 -216 -100 -245 -110 -301 -15 -75 -5 -213 19 -282 37 -106 74 -164
156 -246 85 -85 180 -141 276 -163 59 -14 216 -14 282 0 135 28 288 132 367
249 82 124 407 997 530 1425 109 380 229 946 266 1258 l7 57 197 0 197 0 27
-182 c77 -505 212 -1061 376 -1539 136 -399 350 -941 402 -1019 79 -117 232
-221 367 -249 66 -14 223 -14 282 0 96 22 191 78 276 163 82 82 119 140 156
246 24 69 34 207 19 282 -10 56 -21 85 -110 301 -115 278 -269 709 -346 972
-250 850 -375 1857 -425 3400 -5 171 -10 401 -10 511 l0 201 68 7 c272 27 836
119 1322 216 561 111 1443 312 1539 350 271 106 425 416 351 704 -51 201 -189
350 -390 419 -72 26 -100 30 -185 30 -89 0 -134 -9 -420 -76 -1579 -373 -2550
-517 -3495 -517 -944 0 -1872 137 -3490 515 -328 76 -417 90 -511 75z"/>
</g>
</svg>
