<svg version="1.1"
     xmlns="http://www.w3.org/2000/svg"
	 width="100px"
     height="100px"
     viewBox="0 0 100 100">

    <path d="M50,93C26.9,93,8.1,74.2,8.1,51.1S26.9,9.2,50,9.2c23.1,0,41.9,18.8,41.9,41.9S73.1,93,50,93z M50,16.2
		c-19.3,0-34.9,15.7-34.9,34.9S30.7,86,50,86c19.3,0,34.9-15.7,34.9-34.9S69.3,16.2,50,16.2z M36,44.1c-3.9,0-7-3.1-7-7s3.1-7,7-7
		s7,3.1,7,7S39.9,44.1,36,44.1z M50,75.6c-9.2,0-17.2-5.9-20-14.7c-0.6-1.9,0.4-3.8,2.3-4.4c1.8-0.6,3.8,0.4,4.4,2.3
		c1.8,5.8,7.2,9.8,13.3,9.8c6.1,0,11.5-3.9,13.3-9.8c0.6-1.9,2.6-2.9,4.4-2.3c1.8,0.6,2.8,2.5,2.2,4.4C67.2,69.7,59.2,75.6,50,75.6z
		 M64,44.1c-3.9,0-7-3.1-7-7s3.1-7,7-7s7,3.1,7,7S67.8,44.1,64,44.1z"/>

</svg>
