<svg version="1.1"
     xmlns="http://www.w3.org/2000/svg"
	 width="100px"
     height="100px"
     viewBox="0 0 250 250">

		<path fill="#fff" d="M48.7,88.8C27.9,88.8,11,71.9,11,51.1s16.9-37.7,37.7-37.7s37.7,16.9,37.7,37.7S69.5,88.8,48.7,88.8z M73.1,40.9l-4.5-4.4
		c-0.6-0.6-1.4-0.9-2.2-0.9s-1.6,0.3-2.2,0.9l-20,20L33.1,45.4c-0.6-0.6-1.4-0.9-2.2-0.9c-0.8,0-1.6,0.3-2.2,0.9l-4.5,4.4
		c-0.6,0.6-0.9,1.4-0.9,2.3s0.3,1.6,0.9,2.2L42,72c0.6,0.6,1.4,0.9,2.2,0.9c0.8,0,1.7-0.3,2.3-0.9l26.6-26.6
		c0.6-0.6,0.9-1.4,0.9-2.2C74,42.3,73.7,41.5,73.1,40.9z"/>

</svg>
