<svg version="1.1"
     baseProfile="full"
     xmlns="http://www.w3.org/2000/svg"
	 width="108.6px" height="129.6px"
     viewBox="0 0 108.6 129.6">

	<path d="M54.3,120.5C24.3,120.5,0,96.2,0,66.2s24.3-54.3,54.3-54.3s54.3,24.3,54.3,54.3S84.2,120.5,54.3,120.5z M89.5,63L63.9,37.4
		l-6.4-6.4c-0.8-0.8-2-1.3-3.2-1.3s-2.3,0.4-3.2,1.3l-6.4,6.4L19.1,63c-0.8,0.8-1.3,2-1.3,3.2c0,1.2,0.4,2.3,1.3,3.2l6.4,6.4
		c0.8,0.8,2,1.3,3.2,1.3c1.2,0,2.3-0.4,3.2-1.3l13.4-13.4v35.5c0,2.5,2,4.5,4.5,4.5h9c2.5,0,4.5-2,4.5-4.5V62.4l13.4,13.4
		c0.8,0.8,2,1.3,3.2,1.3c1.2,0,2.3-0.5,3.2-1.3l6.4-6.4c0.8-0.8,1.3-2,1.3-3.2C90.8,64.9,90.3,63.8,89.5,63z"/>
</svg>
