<svg version="1.1"
     xmlns="http://www.w3.org/2000/svg"
     viewBox="0 0 100 100">
	<path d="M79.1,57.4L51.9,83.6c-0.5,0.5-1.2,0.8-1.9,0.8s-1.4-0.3-1.9-0.8L20.8,57.3c-0.3-0.3-10-9.1-10-19.6
		c0-12.8,7.8-20.4,20.9-20.4c7.6,0,14.8,6,18.3,9.4c3.5-3.4,10.6-9.4,18.3-9.4c13.1,0,20.9,7.6,20.9,20.4
		C89.1,48.2,79.5,57,79.1,57.4z M68.3,22.9c-6.5,0-13.8,7-16.1,9.7c-1,1.3-3.2,1.3-4.3,0c-2.3-2.7-9.6-9.7-16.1-9.7
		c-7,0-15.3,2.6-15.3,14.9c0,8,8.1,15.4,8.2,15.5L50,77.7l25.3-24.4c0.1-0.1,8.2-7.6,8.2-15.6C83.6,25.5,75.3,22.9,68.3,22.9z"/>
</svg>
