<svg version="1.1"
     xmlns="http://www.w3.org/2000/svg"
     viewBox="0 0 100 100">
	<path d="M50,99.8C23.2,99.8,1.5,78,1.5,51.3S23.2,2.8,50,2.8c26.8,0,48.5,21.7,48.5,48.5S76.8,99.8,50,99.8z M50,16.9
		c-18.9,0-34.4,15.4-34.4,34.4c0,18.9,15.4,34.4,34.4,34.4c18.9,0,34.4-15.4,34.4-34.4C84.4,32.3,68.9,16.9,50,16.9z M74.3,54.7
		L39.9,74.9c-0.6,0.4-1.3,0.6-2,0.6s-1.4-0.2-2-0.5c-1.3-0.8-2-2.1-2-3.5V31.1c0-1.5,0.8-2.8,2-3.5c1.3-0.7,2.8-0.7,4,0.1l34.4,20.2
		c1.3,0.7,2,2,2,3.5C76.3,52.7,75.5,54,74.3,54.7z"/>
</svg>
