<svg version="1.1"
     xmlns="http://www.w3.org/2000/svg"
     viewBox="0 0 100 100">
	<path d="M50,84.4c-18.5,0-33.6-15-33.6-33.6c0-18.5,15-33.6,33.6-33.6c18.5,0,33.6,15,33.6,33.6C83.5,69.4,68.5,84.4,50,84.4z
		 M50,27.1c-13.1,0-23.8,10.7-23.8,23.8C26.2,64,36.9,74.6,50,74.6c13.1,0,23.8-10.7,23.8-23.8C73.8,37.8,63.1,27.1,50,27.1z
		 M66.8,53.3L43,67.3c-0.4,0.3-0.9,0.4-1.4,0.4s-1-0.1-1.4-0.3c-0.9-0.5-1.4-1.4-1.4-2.4v-28c0-1,0.5-1.9,1.4-2.4
		c0.9-0.5,2-0.5,2.8,0l23.8,14c0.9,0.5,1.4,1.4,1.4,2.4C68.2,51.9,67.6,52.8,66.8,53.3z"/>
</svg>
