<svg version="1.1"
     xmlns="http://www.w3.org/2000/svg"
	 width="100px" height="100px"
     viewBox="0 0 100 100">

		<path d="M82.9,83.1c-0.5,0.8-1.4,1.3-2.4,1.3H19.4c-1,0-1.8-0.5-2.4-1.3c-4-6.3-6.1-13.6-6.1-21.1C10.9,40.5,28.5,23,50,23
		C71.6,23,89.1,40.5,89.1,62C89.1,69.5,86.9,76.8,82.9,83.1z M22.1,56.4c-3.1,0-5.6,2.5-5.6,5.6s2.5,5.6,5.6,5.6s5.6-2.5,5.6-5.6
		S25.2,56.4,22.1,56.4z M30.5,36.9c-3.1,0-5.6,2.5-5.6,5.6s2.5,5.6,5.6,5.6s5.6-2.5,5.6-5.6S33.6,36.9,30.5,36.9z M59.1,46.8
		c0.3-1.5-0.5-3-2-3.4c-1.5-0.4-3,0.5-3.4,2l-4.4,16.7c-3.4,0.3-6.5,2.7-7.4,6.2c-1.2,4.5,1.5,9.1,6,10.2c4.5,1.2,9.1-1.5,10.2-6
		c0.9-3.5-0.6-7.1-3.4-9.1L59.1,46.8z M50,28.5c-3.1,0-5.6,2.5-5.6,5.6s2.5,5.6,5.6,5.6s5.6-2.5,5.6-5.6S53.1,28.5,50,28.5z
		 M69.5,36.9c-3.1,0-5.6,2.5-5.6,5.6s2.5,5.6,5.6,5.6c3.1,0,5.6-2.5,5.6-5.6S72.6,36.9,69.5,36.9z M77.9,56.4
		c-3.1,0-5.6,2.5-5.6,5.6s2.5,5.6,5.6,5.6c3.1,0,5.6-2.5,5.6-5.6S81,56.4,77.9,56.4z"/>

</svg>
