<svg version="1.1"
     xmlns="http://www.w3.org/2000/svg"
	 width="100px"
     height="100px"
     viewBox="0 0 100 100">

    <path d="M15.3,57.3C11.8,57.3,9,54.5,9,51c0-3.5,2.8-6.3,6.3-6.3s6.3,2.8,6.3,6.3C21.6,54.5,18.8,57.3,15.3,57.3z M25.5,34.3
		c-4.3,0-7.9-3.5-7.9-7.9c0-4.3,3.5-7.9,7.9-7.9c4.3,0,7.9,3.5,7.9,7.9C33.3,30.8,29.8,34.3,25.5,34.3z M25.5,81.8
		c-3.4,0-6.3-2.9-6.3-6.3c0-3.5,2.9-6.3,6.3-6.3c3.5,0,6.3,2.8,6.3,6.3C31.8,79,29,81.8,25.5,81.8z M50,25.8c-5.2,0-9.5-4.2-9.5-9.5
		s4.2-9.5,9.5-9.5c5.2,0,9.5,4.2,9.5,9.5S55.2,25.8,50,25.8z M50,92c-3.5,0-6.3-2.8-6.3-6.3s2.8-6.3,6.3-6.3c3.5,0,6.3,2.8,6.3,6.3
		S53.5,92,50,92z M74.5,37.5c-6.1,0-11-4.9-11-11c0-6.1,4.9-11,11-11c6.1,0,11,5,11,11C85.6,32.6,80.6,37.5,74.5,37.5z M74.5,81.8
		c-3.5,0-6.3-2.9-6.3-6.3c0-3.5,2.8-6.3,6.3-6.3c3.4,0,6.3,2.8,6.3,6.3C80.8,79,78,81.8,74.5,81.8z M84.7,57.3
		c-3.5,0-6.3-2.8-6.3-6.3c0-3.5,2.8-6.3,6.3-6.3c3.5,0,6.3,2.8,6.3,6.3C91,54.5,88.2,57.3,84.7,57.3z"/>

</svg>
