<?xml version="1.0" standalone="no"?>
<!DOCTYPE svg PUBLIC "-//W3C//DTD SVG 20010904//EN"
 "http://www.w3.org/TR/2001/REC-SVG-20010904/DTD/svg10.dtd">
<svg version="1.0" xmlns="http://www.w3.org/2000/svg"
 width="716.000000pt" height="716.000000pt" viewBox="0 0 716.000000 716.000000"
 preserveAspectRatio="xMidYMid meet">
<metadata>
Created by potrace 1.11, written by Peter Selinger 2001-2013
</metadata>
<g transform="translate(0.000000,716.000000) scale(0.100000,-0.100000)"
fill="#000000" stroke="none">
<path d="M3477 6504 c-1 -1 -51 -5 -112 -8 -113 -7 -120 -8 -240 -25 -84 -13
-120 -19 -160 -28 -16 -4 -34 -8 -40 -9 -58 -12 -230 -59 -305 -84 -179 -60
-505 -209 -561 -256 -8 -8 -19 -14 -22 -14 -10 0 -179 -112 -247 -163 -410
-309 -718 -687 -932 -1142 -88 -189 -189 -488 -213 -635 -3 -19 -8 -42 -10
-50 -2 -8 -7 -28 -9 -45 -3 -16 -8 -41 -11 -55 -5 -24 -7 -47 -23 -195 -9 -92
-9 -479 1 -579 68 -704 399 -1381 912 -1866 97 -92 131 -121 245 -209 217
-165 408 -278 645 -379 189 -80 442 -158 605 -186 19 -3 46 -8 60 -11 51 -10
162 -24 265 -32 163 -14 516 -7 615 11 14 3 43 7 65 10 55 7 140 22 200 36 28
6 57 13 65 15 75 15 239 66 355 110 397 149 736 367 1045 675 263 262 435 501
591 825 93 192 180 433 214 593 3 12 7 30 9 40 23 95 38 185 57 332 13 103 18
531 7 620 -4 30 -10 78 -13 105 -3 28 -13 88 -22 135 -21 117 -21 118 -38 185
-9 33 -17 69 -20 80 -11 49 -87 269 -121 351 -38 92 -116 251 -180 364 -31 54
-163 254 -194 293 -352 442 -723 735 -1190 939 -178 77 -408 154 -520 173 -19
3 -48 10 -65 15 -34 10 -219 40 -280 45 -165 14 -213 17 -313 18 -63 1 -114 1
-115 1z m156 -988 c15 -3 42 -14 60 -25 18 -11 441 -429 941 -929 854 -855
909 -912 926 -963 19 -56 19 -116 -2 -179 -8 -25 -72 -97 -217 -243 -113 -114
-220 -216 -237 -226 -61 -36 -126 -44 -198 -23 -48 13 -76 39 -443 405 -273
272 -393 385 -394 372 0 -11 0 -457 -1 -991 0 -903 -1 -974 -18 -1023 -21 -64
-69 -116 -135 -147 -50 -24 -52 -24 -360 -21 l-310 2 -44 28 c-59 39 -87 72
-110 132 -18 49 -19 88 -19 1035 0 542 -1 989 -1 995 -1 5 -178 -167 -393
-382 -385 -383 -394 -391 -447 -403 -69 -16 -142 -7 -195 24 -22 13 -131 116
-242 228 -176 177 -203 209 -217 253 -20 61 -14 141 12 194 27 53 1825 1849
1871 1869 44 19 99 30 125 26 11 -2 33 -6 48 -8z"/>
</g>
</svg>
