<svg
    version="1.1"
    xmlns="http://www.w3.org/2000/svg"
    viewBox="0 0 100 100">

	<path d="M89.1,50.9C89.1,72.5,71.6,90,50,90S10.9,72.5,10.9,50.9S28.4,11.8,50,11.8S89.1,29.3,89.1,50.9z M83.5,50.9
		c0,0,0-0.1,0-0.1l-4.5,3.9l-10.5-9.8l2.8-14.1l5.8,0.5C73,25.6,67.1,21.1,60.2,19l2.3,5.4L50,31.3l-12.5-6.9l2.3-5.4
		c-6.9,2.2-12.8,6.6-17,12.3l5.9-0.5l2.7,14.1l-10.5,9.8l-4.5-3.9c0,0,0,0.1,0,0.1c0,7.4,2.4,14.2,6.5,19.8l1.3-5.8l14.2,1.7l6.1,13
		l-5.1,3c3.3,1.1,6.8,1.7,10.5,1.7s7.2-0.6,10.5-1.7l-5.1-3l6.1-13l14.2-1.7l1.3,5.8C81.1,65.1,83.5,58.3,83.5,50.9z M50,38.3
		l12.5,9.1L57.8,62H42.3l-4.8-14.7L50,38.3z"/>

</svg>
