<svg version="1.1"
     xmlns="http://www.w3.org/2000/svg"
     viewBox="0 0 100 100">
	<path d="M33.6,69.9c-0.5,0.5-1.4,0.5-1.9,0L12.3,50.5c-0.5-0.5-0.5-1.4,0-1.9l19.4-19.4c0.5-0.5,1.4-0.5,1.9,0l2.1,2.1
		c0.5,0.5,0.5,1.4,0,1.9L19.3,49.5l16.4,16.4c0.5,0.5,0.5,1.4,0,1.9L33.6,69.9z M44.8,77.1c-0.2,0.7-1,1.1-1.6,0.9l-2.6-0.7
		c-0.7-0.2-1.1-1-0.9-1.7l15.5-53.8c0.2-0.7,1-1.1,1.6-0.9l2.6,0.7c0.7,0.2,1.1,1,0.9,1.7L44.8,77.1z M68.3,69.9
		c-0.5,0.5-1.4,0.5-1.9,0l-2.1-2.1c-0.5-0.5-0.5-1.4,0-1.9l16.4-16.4L64.3,33.1c-0.5-0.5-0.5-1.4,0-1.9l2.1-2.1
		c0.5-0.5,1.4-0.5,1.9,0l19.4,19.4c0.5,0.5,0.5,1.4,0,1.9L68.3,69.9z"/>
</svg>
