<svg version="1.1"
     xmlns="http://www.w3.org/2000/svg"
     width="100px" height="100px"
     viewBox="0 0 100 100">

		<path d="M81.6,41.9c-6.8,4.7-13.6,9.4-20.4,14.2c-2.8,2-7.6,6-11.2,6h0h0c-3.5,0-8.3-4-11.2-6c-6.8-4.8-13.6-9.5-20.4-14.2
		c-3.1-2.1-7.5-7-7.5-11c0-4.3,2.3-7.9,7-7.9h64.2c3.8,0,7,3.1,7,7C89.1,34.8,85.5,39.2,81.6,41.9z M89.1,77.4c0,3.8-3.1,7-7,7H17.9
		c-3.8,0-7-3.1-7-7V42.8c1.3,1.4,2.8,2.7,4.4,3.8c7.2,4.9,14.6,9.9,21.7,15c3.7,2.7,8.2,6,13,6h0h0c4.8,0,9.3-3.3,13-6
		c7.1-5.1,14.4-10.1,21.7-15c1.6-1.1,3.1-2.4,4.4-3.8V77.4z"/>

</svg>
