<?xml version="1.0" standalone="no"?>
<!DOCTYPE svg PUBLIC "-//W3C//DTD SVG 20010904//EN"
 "http://www.w3.org/TR/2001/REC-SVG-20010904/DTD/svg10.dtd">
<svg version="1.0" xmlns="http://www.w3.org/2000/svg"
 width="1000.000000pt" height="1000.000000pt" viewBox="0 0 1000.000000 1000.000000"
 preserveAspectRatio="xMidYMid meet">
<metadata>
Created by potrace 1.11, written by Peter Selinger 2001-2013
</metadata>
<g transform="translate(0.000000,1000.000000) scale(0.100000,-0.100000)"
fill="#000000" stroke="none">
<path d="M4988 9965 c-2 -1 -45 -5 -96 -8 -51 -4 -96 -9 -100 -11 -4 -2 -23
-7 -42 -10 -114 -19 -277 -84 -391 -156 -262 -165 -449 -422 -523 -719 -60
-236 -52 -455 24 -690 91 -285 326 -553 605 -694 51 -25 225 -89 225 -83 0 2
21 -2 46 -10 121 -36 407 -36 528 0 25 8 46 12 46 10 0 -2 39 10 88 27 373
130 669 450 766 824 43 171 52 378 22 525 -3 14 -8 39 -12 55 -23 122 -94 284
-179 415 -60 92 -217 249 -310 311 -180 120 -376 190 -569 205 -39 3 -83 7
-98 9 -15 2 -28 2 -30 0z"/>
<path d="M985 7844 c-218 -39 -396 -192 -464 -399 -30 -89 -36 -233 -15 -325
34 -148 134 -291 257 -367 73 -46 119 -65 207 -86 191 -46 266 -63 485 -114
132 -30 251 -57 265 -59 14 -3 34 -8 45 -11 11 -3 29 -7 40 -9 11 -1 101 -20
200 -42 99 -22 194 -42 210 -45 28 -5 96 -19 155 -32 14 -3 39 -8 55 -11 17
-3 62 -11 100 -19 39 -8 97 -19 130 -25 33 -5 71 -12 85 -15 14 -3 52 -10 85
-15 82 -14 116 -20 145 -25 43 -9 72 -14 175 -30 55 -8 111 -17 125 -19 34 -6
198 -29 295 -41 28 -4 61 -8 75 -10 14 -2 52 -7 85 -11 33 -3 63 -11 66 -16 6
-9 5 -60 -6 -523 -7 -293 -11 -437 -19 -615 -14 -288 -38 -687 -51 -820 -2
-25 -6 -76 -10 -115 -3 -38 -8 -86 -10 -105 -2 -19 -7 -73 -10 -119 -4 -47 -8
-92 -10 -100 -1 -9 -6 -47 -9 -86 -4 -38 -9 -81 -11 -95 -2 -14 -6 -50 -10
-80 -3 -30 -8 -66 -10 -80 -2 -14 -7 -47 -10 -75 -3 -27 -7 -61 -10 -75 -3
-14 -7 -38 -9 -55 -18 -111 -26 -165 -31 -200 -3 -22 -8 -51 -11 -65 -6 -24
-9 -41 -19 -97 -2 -15 -9 -49 -14 -77 -6 -28 -12 -62 -15 -76 -9 -54 -78 -350
-103 -440 -14 -52 -26 -99 -28 -105 -7 -39 -130 -427 -150 -475 -8 -19 -34
-91 -59 -160 -60 -169 -154 -411 -211 -545 -63 -147 -75 -200 -71 -315 6 -157
61 -287 170 -400 116 -121 258 -181 424 -181 115 0 180 15 281 63 92 44 195
136 243 218 32 55 192 455 307 767 155 421 301 932 375 1313 3 14 12 59 20
100 8 41 17 93 20 115 4 22 8 47 11 55 2 8 6 33 10 55 3 22 12 78 20 125 7 47
17 110 20 140 l7 55 193 0 c106 0 196 -2 198 -5 3 -3 8 -25 11 -50 4 -25 11
-74 17 -110 5 -36 12 -76 14 -90 21 -138 60 -345 101 -530 14 -63 27 -122 29
-131 26 -130 161 -599 230 -799 49 -142 114 -321 125 -345 5 -11 18 -47 30
-80 12 -33 66 -172 121 -310 109 -274 152 -347 250 -424 59 -48 176 -105 234
-117 22 -4 47 -9 55 -10 30 -7 156 -6 199 0 182 29 352 158 436 331 51 102 65
172 61 284 -4 109 -11 133 -129 421 -102 248 -263 688 -282 770 -2 8 -22 74
-45 145 -22 72 -42 139 -45 150 -2 11 -12 47 -20 80 -9 33 -17 67 -19 75 -2 8
-12 44 -21 80 -9 36 -18 74 -20 85 -1 11 -12 65 -24 120 -23 102 -27 121 -35
165 -2 14 -11 63 -20 110 -9 47 -18 99 -21 115 -7 56 -16 110 -25 160 -5 28
-12 75 -16 105 -3 30 -7 57 -9 60 -1 3 -6 36 -10 73 -3 37 -8 76 -10 85 -1 9
-6 44 -9 77 -4 33 -9 80 -12 105 -22 192 -26 235 -40 405 -3 44 -7 96 -9 115
-2 19 -7 82 -10 140 -3 58 -8 119 -10 136 -3 18 -7 87 -10 155 -4 68 -8 153
-10 189 -3 36 -7 133 -10 215 -4 83 -8 188 -10 235 -4 101 -16 561 -19 747 -1
73 0 137 3 142 3 5 35 12 71 16 36 4 73 9 82 10 9 2 41 6 70 9 29 4 62 8 73
10 19 3 78 12 150 21 17 2 44 6 60 9 17 3 50 8 75 11 25 3 68 10 95 15 28 5
68 12 90 15 22 4 54 9 70 11 34 6 189 34 220 40 11 3 36 7 55 10 19 3 125 24
235 45 227 46 210 42 341 70 55 11 110 23 124 25 14 3 144 32 290 65 146 33
276 62 289 65 12 3 53 12 90 20 36 9 73 17 81 19 8 2 33 8 55 13 22 6 51 13
65 16 70 13 208 50 250 66 123 48 243 160 303 281 201 408 -83 872 -533 871
-63 0 -122 -7 -175 -20 -44 -12 -91 -23 -105 -26 -14 -2 -101 -23 -195 -45
-249 -58 -475 -109 -514 -116 -19 -3 -37 -8 -41 -10 -4 -2 -21 -7 -38 -10 -27
-4 -135 -27 -192 -40 -86 -19 -654 -129 -750 -145 -149 -25 -170 -28 -212 -35
-18 -3 -44 -7 -58 -10 -14 -2 -45 -7 -70 -10 -25 -3 -72 -10 -105 -15 -33 -5
-80 -12 -105 -15 -25 -3 -56 -8 -70 -10 -14 -2 -70 -9 -125 -15 -55 -6 -111
-13 -125 -15 -14 -2 -59 -6 -100 -10 -41 -3 -91 -8 -110 -10 -19 -3 -73 -7
-120 -11 -47 -3 -105 -7 -130 -9 -118 -8 -443 -18 -600 -17 -244 0 -644 19
-790 37 -19 2 -69 7 -110 10 -41 3 -86 8 -100 10 -14 2 -50 6 -80 10 -30 3
-73 8 -95 11 -22 3 -56 7 -75 9 -38 5 -309 43 -350 50 -28 4 -198 33 -245 41
-16 3 -41 7 -55 9 -14 2 -63 11 -110 20 -47 8 -101 18 -120 21 -19 3 -43 7
-52 10 -10 3 -30 7 -45 10 -57 10 -382 77 -508 104 -71 16 -141 31 -155 34
-32 6 -219 48 -330 75 -47 11 -97 22 -110 25 -14 3 -120 27 -237 55 -234 56
-313 64 -418 45z"/>
</g>
</svg>
