<svg version="1.1"
     xmlns="http://www.w3.org/2000/svg">

    <symbol id="check" viewBox="0 0 100 100">
        <path d="M72.2,43.2L50.7,63.5l-4,3.8c-0.5,0.5-1.3,0.8-2,0.8c-0.7,0-1.5-0.3-2-0.8l-4-3.8L27.8,53.4c-0.5-0.5-0.8-1.2-0.8-1.9
		s0.3-1.4,0.8-1.9l4-3.8c0.5-0.5,1.3-0.8,2-0.8c0.7,0,1.5,0.3,2,0.8l8.7,8.3l19.5-18.5c0.5-0.5,1.3-0.8,2-0.8s1.5,0.3,2,0.8l4,3.8
		c0.5,0.5,0.8,1.2,0.8,1.9C73,42,72.7,42.7,72.2,43.2z"/>
    </symbol>


    <symbol id="circle-thin" viewBox="0 0 100 100">
        <path d="M50,84.4c-18.5,0-33.5-15-33.5-33.5s15-33.5,33.5-33.5c18.5,0,33.5,15,33.5,33.5S68.5,84.4,50,84.4z M22.1,50.9
		c0,15.4,12.5,27.9,27.9,27.9c15.4,0,27.9-12.5,27.9-27.9S65.4,22.9,50,22.9C34.6,22.9,22.1,35.5,22.1,50.9z"/>
    </symbol>

    <symbol id="checked" viewBox="0 0 100 100">
        <!-- the check -->
        <path fill="currentcolor" d="M72.2,43.2L50.7,63.5l-4,3.8c-0.5,0.5-1.3,0.8-2,0.8c-0.7,0-1.5-0.3-2-0.8l-4-3.8L27.8,53.4c-0.5-0.5-0.8-1.2-0.8-1.9
		s0.3-1.4,0.8-1.9l4-3.8c0.5-0.5,1.3-0.8,2-0.8c0.7,0,1.5,0.3,2,0.8l8.7,8.3l19.5-18.5c0.5-0.5,1.3-0.8,2-0.8s1.5,0.3,2,0.8l4,3.8
		c0.5,0.5,0.8,1.2,0.8,1.9C73,42,72.7,42.7,72.2,43.2z"/>
        <!-- the circle -->
        <path d="M50,84.4c-18.5,0-33.5-15-33.5-33.5s15-33.5,33.5-33.5c18.5,0,33.5,15,33.5,33.5S68.5,84.4,50,84.4z M22.1,50.9
		c0,15.4,12.5,27.9,27.9,27.9c15.4,0,27.9-12.5,27.9-27.9S65.4,22.9,50,22.9C34.6,22.9,22.1,35.5,22.1,50.9z"/>
    </symbol>



</svg>
