<?xml version="1.0" standalone="no"?>
<!DOCTYPE svg PUBLIC "-//W3C//DTD SVG 20010904//EN"
 "http://www.w3.org/TR/2001/REC-SVG-20010904/DTD/svg10.dtd">
<svg version="1.0" xmlns="http://www.w3.org/2000/svg"
 width="300.000000pt" height="300.000000pt" viewBox="0 0 300.000000 300.000000"
 preserveAspectRatio="xMidYMid meet">
<metadata>
Created by potrace 1.11, written by Peter Selinger 2001-2013
</metadata>
<g transform="translate(0.000000,300.000000) scale(0.100000,-0.100000)"
fill="#000000" stroke="none">
<path d="M1394 2947 c-124 -40 -218 -142 -242 -262 -30 -148 39 -308 165 -381
267 -157 589 74 531 381 -37 198 -259 326 -454 262z"/>
<path d="M319 2340 c-159 -27 -203 -245 -66 -324 53 -31 493 -129 717 -161 27
-4 115 -17 135 -20 11 -2 25 -4 31 -4 11 -1 11 -24 0 -306 -6 -151 -9 -185
-21 -330 -30 -330 -86 -573 -195 -840 -25 -61 -41 -116 -41 -142 -1 -160 199
-238 308 -121 67 72 212 526 248 778 4 25 8 46 10 48 5 5 104 6 109 1 2 -2 6
-22 9 -44 28 -195 97 -439 189 -664 45 -111 74 -146 140 -166 118 -35 232 49
229 169 0 23 -21 91 -47 156 -95 238 -157 488 -179 725 -12 128 -15 162 -20
215 -4 47 -12 232 -19 450 -2 58 2 82 13 76 5 -3 83 6 159 18 201 34 223 38
376 72 67 15 126 27 131 28 188 38 243 64 274 129 45 94 12 195 -78 242 -46
23 -85 21 -221 -10 -334 -78 -522 -111 -790 -140 -68 -7 -372 -8 -431 -1 -24
3 -84 10 -134 16 -106 12 -142 17 -210 30 -27 5 -66 12 -85 15 -49 8 -286 59
-405 87 -63 15 -113 22 -136 18z"/>
</g>
</svg>
