<svg version="1.1"
     xmlns="http://www.w3.org/2000/svg"
	 width="11.1px"
     height="12.3px"
     viewBox="0 0 11.1 12.3">

	<path d="M11.1,4.3l-1.8,6.1c-0.2,0.6-0.8,1-1.3,1H1.7c-0.7,0-1.4-0.5-1.7-1.2C0,9.9,0,9.6,0.1,9.3c0-0.1,0-0.3,0-0.4
		c0-0.1-0.1-0.2,0-0.3c0-0.2,0.2-0.3,0.3-0.5c0.2-0.3,0.4-0.9,0.5-1.2c0-0.1,0-0.3,0-0.4c0-0.1,0.2-0.2,0.2-0.3
		C1.3,5.9,1.5,5.3,1.5,5c0-0.1-0.1-0.3,0-0.4c0-0.2,0.2-0.2,0.3-0.4C2,4,2.2,3.4,2.3,3c0-0.1-0.1-0.2,0-0.3c0-0.1,0.2-0.3,0.3-0.4
		c0.3-0.4,0.3-1.3,1.2-1.1l0,0c0.1,0,0.2-0.1,0.3-0.1h5.1c0.3,0,0.6,0.1,0.8,0.4c0.2,0.2,0.2,0.6,0.1,0.9L8.2,8.4
		c-0.3,1-0.5,1.3-1.3,1.3H1c-0.1,0-0.2,0-0.3,0.1c-0.1,0.1-0.1,0.1,0,0.3c0.1,0.4,0.6,0.5,1,0.5h6.2c0.2,0,0.5-0.1,0.6-0.4l2-6.6
		c0-0.1,0-0.3,0-0.4c0.2,0.1,0.3,0.2,0.4,0.3C11.1,3.7,11.2,4,11.1,4.3z M3.4,5.4h4.1c0.1,0,0.2-0.1,0.3-0.2l0.1-0.4
		c0-0.1,0-0.2-0.1-0.2H3.7c-0.1,0-0.2,0.1-0.3,0.2L3.3,5.2C3.3,5.3,3.3,5.4,3.4,5.4z M4,3.7h4.1c0.1,0,0.2-0.1,0.3-0.2l0.1-0.4
		c0-0.1,0-0.2-0.1-0.2H4.3C4.2,2.8,4,2.9,4,3.1L3.9,3.5C3.8,3.6,3.9,3.7,4,3.7z"/>
</svg>
