<svg version="1.1"
     xmlns="http://www.w3.org/2000/svg"
     width="10.3px"
     height="12.3px"
     viewBox="0 0 10.3 12.3">

	<path d="M10.3,7c0,0.1-0.1,0.2-0.2,0.2L8.9,7.5C8.8,7.7,8.7,7.9,8.6,8.1C8.8,8.4,9.1,8.7,9.3,9c0,0,0.1,0.1,0.1,0.2s0,0.1-0.1,0.2
		C9.2,9.5,8.3,10.5,8,10.5c-0.1,0-0.1,0-0.2-0.1L6.9,9.7C6.7,9.8,6.5,9.9,6.3,10c0,0.4-0.1,0.8-0.2,1.2c0,0.1-0.1,0.2-0.2,0.2H4.4
		c-0.1,0-0.2-0.1-0.2-0.2L4,10C3.8,9.9,3.6,9.8,3.4,9.7l-0.9,0.7c0,0-0.1,0.1-0.2,0.1c-0.1,0-0.1,0-0.2-0.1C1.7,10.1,1.3,9.7,1,9.3
		c0,0,0-0.1,0-0.2C0.9,9.1,1,9.1,1,9c0.2-0.3,0.5-0.6,0.7-0.9C1.6,7.9,1.5,7.7,1.4,7.4L0.2,7.2C0.1,7.2,0,7.1,0,7V5.5
		c0-0.1,0.1-0.2,0.2-0.2l1.2-0.2c0.1-0.2,0.2-0.4,0.3-0.6C1.5,4.1,1.2,3.8,1,3.5c0,0-0.1-0.1-0.1-0.2c0-0.1,0-0.1,0.1-0.2
		C1.1,3,2,2,2.3,2c0.1,0,0.1,0,0.2,0.1l0.9,0.7C3.5,2.7,3.8,2.6,4,2.6c0-0.4,0.1-0.8,0.2-1.2c0-0.1,0.1-0.2,0.2-0.2h1.5
		c0.1,0,0.2,0.1,0.2,0.2l0.2,1.2c0.2,0.1,0.4,0.1,0.6,0.2l1-0.7C7.9,2.1,8,2,8,2c0.1,0,0.1,0,0.2,0.1C8.6,2.4,9,2.8,9.3,3.2
		c0,0,0,0.1,0,0.1c0,0.1,0,0.1-0.1,0.2C9.1,3.8,8.8,4.1,8.6,4.5c0.1,0.2,0.2,0.4,0.3,0.7l1.2,0.2c0.1,0,0.2,0.1,0.2,0.2V7z M5.1,4.6
		c-0.9,0-1.7,0.8-1.7,1.7S4.2,8,5.1,8s1.7-0.8,1.7-1.7S6.1,4.6,5.1,4.6z"/>

</svg>
