<svg version="1.1"
     xmlns="http://www.w3.org/2000/svg"
	 width="11.1px"
     height="12.3px"
     viewBox="0 0 11.1 12.3">

	<path d="M10.5,6.9c0,0-0.1,0.1-0.1,0.1c0,0,0,0,0,0c-0.1,0-0.1,0-0.1,0L5.6,3.1L0.9,7c0,0-0.1,0.1-0.2,0C0.7,7,0.7,7,0.6,6.9
		L0.2,6.5c-0.1-0.1-0.1-0.2,0-0.3l4.8-4c0.3-0.2,0.7-0.2,1,0l1.6,1.4V2.2C7.7,2.1,7.8,2,7.9,2h1.3c0.1,0,0.2,0.1,0.2,0.2v2.7
		l1.5,1.2c0.1,0.1,0.1,0.2,0,0.3L10.5,6.9z M9.4,10.1c0,0.2-0.2,0.4-0.4,0.4H6.4V8H4.7v2.6H2.1c-0.2,0-0.4-0.2-0.4-0.4V6.9
		c0,0,0,0,0,0l3.9-3.2l3.9,3.2c0,0,0,0,0,0V10.1z"/>

</svg>
