<svg version="1.1"
     xmlns="http://www.w3.org/2000/svg"
     width="100px" height="100px"
     viewBox="0 0 100 100">

	<path d="M90.7,88.6c0,3.4-2.8,6.3-6.3,6.3H15.6c-3.4,0-6.3-2.8-6.3-6.3V25.9c0-3.4,2.8-6.3,6.3-6.3h6.3V15c0-4.3,3.5-7.8,7.8-7.8
		h3.1c4.3,0,7.8,3.5,7.8,7.8v4.7h18.8V15c0-4.3,3.5-7.8,7.8-7.8h3.1c4.3,0,7.8,3.5,7.8,7.8v4.7h6.3c3.4,0,6.3,2.8,6.3,6.3V88.6z
		 M29.6,52.5V38.5H15.6v14.1H29.6z M29.6,71.3V55.7H15.6v15.7H29.6z M29.6,88.6V74.5H15.6v14.1H29.6z M34.3,15
		c0-0.8-0.7-1.6-1.6-1.6h-3.1c-0.8,0-1.6,0.7-1.6,1.6v14.1c0,0.8,0.7,1.6,1.6,1.6h3.1c0.8,0,1.6-0.7,1.6-1.6V15z M48.4,52.5V38.5
		H32.8v14.1H48.4z M48.4,71.3V55.7H32.8v15.7H48.4z M48.4,88.6V74.5H32.8v14.1H48.4z M67.2,52.5V38.5H51.6v14.1H67.2z M67.2,71.3
		V55.7H51.6v15.7H67.2z M67.2,88.6V74.5H51.6v14.1H67.2z M71.9,15c0-0.8-0.7-1.6-1.6-1.6h-3.1c-0.8,0-1.6,0.7-1.6,1.6v14.1
		c0,0.8,0.7,1.6,1.6,1.6h3.1c0.8,0,1.6-0.7,1.6-1.6V15z M84.4,52.5V38.5H70.3v14.1H84.4z M84.4,71.3V55.7H70.3v15.7H84.4z
		 M84.4,88.6V74.5H70.3v14.1H84.4z"/>

</svg>
