<svg version="1.1"
     xmlns="http://www.w3.org/2000/svg"
	 width="463.9px"
     height="511.3px"
     viewBox="0 0 463.9 511.3">
	<path d="M350.1,301.8l22.9,133.4c1.9,11.7-2.4,18.7-10.7,18.7c-2.9,0-6.7-1.1-10.7-3.2l-119.8-63l-119.8,63
		c-4,2.1-7.7,3.2-10.7,3.2c-8.3,0-12.5-6.9-10.7-18.7l22.9-133.4l-97.1-94.4c-11.5-11.5-7.7-22.7,8.3-25.1l133.9-19.5l60-121.4
		c3.5-7.2,8.3-10.9,13.1-10.9s9.3,3.7,13.1,10.9l60,121.4L439,182.3c16,2.4,19.7,13.6,8,25.1L350.1,301.8z M394.9,210.6l-95-13.9
		l-17.6-2.7l-8-16L232,92.1V349l15.7,8.3l84.8,44.8l-16-94.7l-3.2-17.6l13.1-12.5L394.9,210.6z"/>
</svg>
