<?xml version="1.0" standalone="no"?>
<!DOCTYPE svg PUBLIC "-//W3C//DTD SVG 20010904//EN"
 "http://www.w3.org/TR/2001/REC-SVG-20010904/DTD/svg10.dtd">
<svg version="1.0" xmlns="http://www.w3.org/2000/svg"
 width="1000.000000pt" height="1000.000000pt" viewBox="0 0 1000.000000 1000.000000"
 preserveAspectRatio="xMidYMid meet">
<metadata>
Created by potrace 1.11, written by Peter Selinger 2001-2013
</metadata>
<g transform="translate(0.000000,1000.000000) scale(0.100000,-0.100000)"
fill="#000000" stroke="none">
<path d="M4895 9964 c-307 -33 -563 -158 -771 -375 -99 -104 -152 -181 -215
-313 -269 -563 -59 -1244 481 -1561 346 -203 793 -217 1150 -37 213 107 379
262 502 469 201 338 220 771 49 1129 -63 132 -116 209 -215 313 -180 188 -400
309 -646 355 -85 16 -267 27 -335 20z"/>
<path d="M960 7845 c-201 -45 -375 -200 -442 -393 -20 -57 -23 -86 -23 -197 1
-110 4 -140 24 -195 53 -150 161 -274 295 -341 88 -43 226 -78 903 -228 765
-170 1395 -285 1898 -346 72 -9 140 -18 153 -21 22 -4 22 -7 22 -152 0 -81 -5
-293 -10 -472 -52 -1706 -193 -2773 -485 -3670 -87 -265 -225 -637 -321 -862
-30 -69 -61 -152 -69 -184 -19 -75 -19 -213 0 -289 50 -198 208 -368 405 -435
78 -27 242 -32 330 -11 141 34 290 139 366 257 56 88 324 779 439 1134 144
445 248 880 324 1360 17 107 34 205 36 218 5 22 7 22 195 22 188 0 190 0 195
-22 3 -13 14 -82 25 -155 74 -489 185 -960 335 -1423 115 -355 383 -1046 439
-1134 76 -118 225 -223 366 -257 88 -21 252 -16 330 11 197 67 355 237 405
435 19 76 19 214 0 289 -8 32 -39 115 -69 184 -96 225 -234 597 -321 862 -292
897 -433 1964 -485 3670 -5 179 -10 391 -10 472 0 145 0 148 23 152 12 3 81
12 152 21 503 61 1133 176 1898 346 677 150 815 185 903 228 134 67 242 191
295 341 20 55 23 85 24 195 0 111 -3 140 -23 197 -87 250 -342 422 -602 405
-41 -3 -210 -37 -375 -75 -1302 -306 -2077 -439 -2935 -504 -248 -19 -944 -16
-1210 5 -821 66 -1599 201 -2865 499 -331 77 -423 88 -535 63z"/>
</g>
</svg>
