<svg version="1.1"
     xmlns="http://www.w3.org/2000/svg"
	 width="453.9px"
     height="500.2px"
     viewBox="0 0 453.9 500.2">
	<path d="M444.4,201.3l-97.9,95.5l23.2,134.9c0.3,1.9,0.3,3.5,0.3,5.4c0,7-3.2,13.5-11.1,13.5c-3.8,0-7.6-1.3-10.8-3.2l-121.1-63.7
		l-121.1,63.7c-3.5,1.9-7,3.2-10.8,3.2c-7.8,0-11.3-6.5-11.3-13.5c0-1.9,0.3-3.5,0.5-5.4l23.2-134.9L9.2,201.3
		c-3.2-3.5-6.7-8.1-6.7-12.9c0-8.1,8.4-11.3,15.1-12.4L153,156.2l60.7-122.7c2.4-5.1,7-11.1,13.2-11.1s10.8,5.9,13.2,11.1
		l60.7,122.7l135.4,19.7c6.5,1.1,15.1,4.3,15.1,12.4C451.4,193.2,447.9,197.8,444.4,201.3z"/>
</svg>
