<svg version="1.1"
     xmlns="http://www.w3.org/2000/svg"
	 width="454.9px" height="501.4px"
     viewBox="0 0 454.9 501.4">

	<path d="M445.4,201.7l-98.1,95.7l23.3,135.2c0.3,1.9,0.3,3.5,0.3,5.4c0,7.3-3.2,13.5-11.1,13.5c-3.8,0-7.6-1.4-10.8-3.2
		l-121.4-63.8l-121.4,63.8c-3.5,1.9-7,3.2-10.8,3.2c-7.8,0-11.4-6.5-11.4-13.5c0-1.9,0.3-3.5,0.5-5.4l23.3-135.2L9.3,201.7
		c-3.2-3.5-6.8-8.1-6.8-13c0-8.1,8.4-11.4,15.1-12.4l135.7-19.7l60.8-123c2.4-5.1,7-11.1,13.2-11.1c6.2,0,10.8,5.9,13.2,11.1
		l60.8,123l135.7,19.7c6.5,1.1,15.1,4.3,15.1,12.4C452.4,193.6,448.9,198.2,445.4,201.7z M392.6,205l-114.1-16.8L227.4,84.9
		l-51.1,103.3L62.3,205l82.7,80.3l-19.7,113.8l102.2-53.8l101.9,53.8l-19.5-113.8L392.6,205z"/>
</svg>
