<?xml version="1.0" standalone="no"?>
<!DOCTYPE svg PUBLIC "-//W3C//DTD SVG 20010904//EN"
 "http://www.w3.org/TR/2001/REC-SVG-20010904/DTD/svg10.dtd">
<svg version="1.0" xmlns="http://www.w3.org/2000/svg"
 width="750.000000pt" height="750.000000pt" viewBox="0 0 750.000000 750.000000"
 preserveAspectRatio="xMidYMid meet">
<metadata>
Created by potrace 1.11, written by Peter Selinger 2001-2013
</metadata>
<g transform="translate(0.000000,750.000000) scale(0.100000,-0.100000)"
fill="#000000" stroke="none">
<path d="M3370 7474 c-14 -2 -68 -9 -120 -15 -273 -32 -636 -128 -900 -239
-136 -56 -434 -204 -495 -245 -32 -22 -89 -58 -126 -80 -167 -101 -370 -267
-588 -480 -329 -323 -535 -603 -735 -1000 -208 -414 -328 -812 -376 -1255 -16
-140 -12 -607 5 -755 29 -238 51 -360 96 -530 11 -38 19 -92 19 -119 0 -27 4
-63 10 -80 38 -119 55 -162 85 -206 18 -27 39 -66 45 -87 17 -51 40 -104 113
-253 166 -342 417 -698 673 -955 370 -372 682 -592 1161 -816 224 -105 488
-191 828 -269 229 -52 832 -72 1100 -36 163 23 388 64 436 81 21 8 65 19 97
25 74 13 306 89 394 128 36 17 68 29 70 26 7 -6 446 218 538 276 47 29 120 77
163 108 43 30 99 61 125 68 64 20 165 102 380 309 247 238 503 571 649 845
140 262 189 372 277 616 27 77 36 117 36 167 0 55 5 75 34 129 47 90 89 301
91 463 1 66 5 246 9 400 7 239 6 297 -9 400 -9 66 -17 127 -17 135 1 8 -6 49
-13 90 -8 41 -17 91 -19 110 -5 43 -7 52 -45 210 -29 119 -97 333 -155 485
-15 39 -78 174 -141 300 -63 127 -115 239 -115 249 0 20 -34 83 -82 150 -16
23 -41 59 -55 81 -95 141 -246 319 -418 490 -300 301 -578 505 -942 690 -187
96 -314 149 -551 231 -24 9 -74 19 -110 24 -72 9 -176 33 -257 58 -56 17 -92
23 -280 46 -71 9 -145 20 -162 25 -30 9 -667 13 -723 5z m445 -2133 c33 -5
100 -13 149 -16 49 -4 114 -11 145 -16 31 -5 74 -9 97 -9 96 0 348 -112 516
-229 254 -178 446 -422 558 -706 13 -33 28 -63 33 -66 5 -3 8 -9 7 -13 -2 -9
7 -51 35 -171 34 -142 48 -338 34 -505 -6 -74 -14 -148 -19 -165 -4 -16 -11
-47 -15 -69 -7 -43 -53 -181 -78 -236 -8 -19 -28 -62 -42 -95 -65 -145 -168
-288 -324 -449 -73 -74 -134 -127 -165 -143 -27 -13 -59 -35 -72 -48 -12 -13
-48 -35 -78 -50 -30 -15 -60 -33 -65 -39 -6 -7 -29 -19 -51 -26 -22 -7 -40
-16 -40 -20 0 -9 -100 -43 -107 -36 -3 3 -11 -1 -17 -10 -6 -8 -23 -16 -37
-18 -13 -1 -30 -6 -37 -10 -7 -4 -16 -4 -22 -1 -5 3 -10 1 -10 -6 0 -6 -8 -9
-19 -6 -11 3 -48 -1 -83 -8 -144 -30 -294 -39 -437 -26 -75 7 -156 17 -181 23
-25 6 -72 10 -104 9 -71 -2 -194 36 -258 79 -24 17 -51 30 -61 30 -10 0 -44
13 -77 30 -210 106 -372 253 -548 499 -44 61 -146 275 -182 381 -30 87 -73
246 -84 310 -21 122 1 450 43 620 74 305 204 539 418 757 175 178 306 264 541
359 122 49 179 63 397 94 75 11 173 11 240 1z m3605 -1431 c0 -5 -5 -10 -11
-10 -5 0 -7 5 -4 10 3 6 8 10 11 10 2 0 4 -4 4 -10z m15 -210 c-3 -5 -11 -10
-16 -10 -6 0 -7 5 -4 10 3 6 11 10 16 10 6 0 7 -4 4 -10z"/>
</g>
</svg>
