<svg version="1.1"
     xmlns="http://www.w3.org/2000/svg"
     viewBox="0 0 100 100">
	<path d="M83.5,71.8c0,6.9-5.6,12.6-12.6,12.6H29.1c-6.9,0-12.6-5.6-12.6-12.6V29.9c0-6.9,5.6-12.6,12.6-12.6h41.9
		c6.9,0,12.6,5.6,12.6,12.6V71.8z M67.1,39.9c1.9-1.1,3.4-3,4.1-5.1c-1.8,1-3.8,1.8-5.8,2.2c-1.7-1.8-4.1-2.9-6.7-2.9
		c-5.1,0-9.2,4.1-9.2,9.2c0,0.7,0,1.4,0.2,2.1c-7.6-0.4-14.4-4-18.9-9.6c-0.8,1.4-1.3,3-1.3,4.6c0,3.2,1.5,6,4,7.6
		c-1.5,0-3-0.5-4.4-1.1c0,0,0,0,0,0.1c0,4.5,3.4,8.2,7.5,9c-0.8,0.2-1.4,0.3-2.2,0.3c-0.6,0-1.1-0.1-1.7-0.2
		c1.2,3.6,4.5,6.3,8.6,6.4c-3.1,2.4-7.1,3.9-11.4,3.9c-0.7,0-1.5,0-2.2-0.1c4.1,2.6,8.9,4.1,14,4.1c16.8,0,26.1-14,26.1-26.1
		c0-0.4,0-0.8,0-1.2c1.8-1.3,3.4-2.9,4.6-4.8C70.7,39.1,68.9,39.6,67.1,39.9z"/>
</svg>
