<?xml version="1.0" standalone="no"?>
<!DOCTYPE svg PUBLIC "-//W3C//DTD SVG 20010904//EN"
 "http://www.w3.org/TR/2001/REC-SVG-20010904/DTD/svg10.dtd">
<svg version="1.0" xmlns="http://www.w3.org/2000/svg"
 width="1040.000000pt" height="1040.000000pt" viewBox="0 0 1040.000000 1040.000000"
 preserveAspectRatio="xMidYMid meet">
<metadata>
Created by potrace 1.11, written by Peter Selinger 2001-2013
</metadata>
<g transform="translate(0.000000,1040.000000) scale(0.100000,-0.100000)"
fill="#000000" stroke="none">
<path d="M3207 9004 c-1 -1 -38 -4 -82 -8 -255 -22 -566 -143 -759 -296 -250
-198 -418 -422 -510 -679 -20 -56 -99 -352 -131 -491 -2 -8 -18 -71 -35 -140
-18 -69 -33 -132 -35 -141 -2 -8 -10 -39 -19 -67 -8 -29 -13 -52 -10 -52 3 0
0 -8 -5 -17 -5 -10 -12 -35 -15 -57 -4 -21 -8 -41 -11 -45 -2 -4 -6 -18 -9
-32 -2 -13 -21 -89 -41 -169 -21 -80 -39 -152 -40 -160 -2 -8 -4 -15 -5 -15
-2 0 -6 -18 -15 -64 -3 -19 -8 -37 -10 -41 -2 -3 -6 -17 -8 -31 -3 -13 -15
-62 -27 -109 -12 -47 -23 -92 -25 -100 -2 -8 -25 -96 -50 -195 -25 -99 -48
-191 -51 -205 -3 -14 -8 -34 -11 -45 -4 -11 -7 -22 -8 -25 -1 -3 -5 -20 -9
-37 l-8 -33 -116 0 c-210 -1 -356 -32 -517 -111 -96 -47 -100 -50 -191 -116
-179 -132 -325 -335 -398 -555 -54 -161 -54 -151 -55 -1284 -1 -734 2 -1060
10 -1080 13 -36 46 -71 83 -91 24 -13 77 -15 293 -16 l263 0 0 -366 c1 -201 3
-384 6 -406 42 -311 232 -587 507 -735 75 -41 183 -82 247 -94 19 -3 46 -9 60
-12 14 -3 80 -7 147 -8 103 -2 138 1 230 24 59 15 129 36 155 48 26 12 49 22
52 22 3 0 36 19 73 41 225 137 391 363 448 612 25 109 27 155 28 518 l1 356
2598 0 2598 0 1 -356 c0 -196 2 -365 3 -376 2 -11 6 -42 9 -70 10 -73 40 -173
81 -259 120 -256 352 -454 618 -526 109 -29 124 -31 240 -34 128 -4 195 5 308
41 47 15 87 27 90 28 3 0 34 15 70 34 174 89 316 226 409 394 40 73 87 189 96
236 3 14 7 37 10 51 16 70 20 185 20 496 l0 341 260 1 c150 0 271 4 286 10 39
16 88 69 94 105 3 18 5 518 3 1112 l-3 1080 -27 99 c-90 326 -323 603 -623
742 -77 35 -215 78 -286 89 -91 14 -107 15 -221 17 -77 1 -118 5 -119 12 -1
19 -7 44 -18 78 -6 18 -12 44 -15 58 -3 14 -15 63 -27 110 -11 47 -22 92 -24
100 -2 8 -11 44 -20 80 -9 36 -18 72 -20 80 -2 8 -11 44 -20 80 -9 36 -19 72
-21 80 -1 8 -67 267 -144 575 -78 308 -143 568 -145 578 -2 10 -7 27 -10 37
-3 10 -7 27 -9 37 -10 51 -78 311 -86 328 -5 11 -12 31 -16 45 -10 36 -72 165
-113 235 -65 111 -183 253 -292 350 -74 65 -90 78 -179 137 -204 135 -434 218
-671 244 -50 5 -4075 13 -4082 8z m3999 -1320 c63 -30 120 -94 130 -147 2 -12
36 -148 75 -302 39 -154 73 -291 75 -305 3 -14 10 -43 16 -65 5 -22 12 -47 14
-55 2 -8 22 -87 44 -175 22 -88 42 -169 44 -180 2 -11 12 -49 21 -85 9 -36 18
-72 20 -80 2 -8 11 -44 20 -80 9 -36 18 -72 20 -80 2 -8 11 -44 20 -80 9 -36
19 -73 20 -83 2 -10 13 -50 23 -90 11 -40 22 -84 26 -98 l6 -26 -2575 -1
c-2198 0 -2575 2 -2575 13 0 15 115 490 131 540 12 37 249 992 254 1020 1 12
12 54 23 95 12 41 23 86 26 100 12 67 56 123 125 160 35 19 82 19 2009 20
1796 0 1977 -1 2008 -16z m-5427 -2764 c151 -27 293 -103 404 -213 119 -119
164 -188 212 -330 136 -407 -82 -859 -487 -1011 -183 -69 -384 -69 -567 0
-234 88 -425 295 -494 535 -61 208 -33 434 77 630 89 159 279 311 459 369 112
36 270 44 396 20z m7131 5 c75 -11 196 -55 270 -99 158 -93 271 -222 348 -396
61 -140 76 -340 36 -497 -48 -186 -146 -335 -301 -454 -338 -259 -827 -205
-1104 124 -217 259 -253 621 -90 912 170 302 497 462 841 410z"/>
</g>
</svg>
