<svg version="1.1"
     xmlns="http://www.w3.org/2000/svg"
     width="100px" height="100px"
     viewBox="0 0 100 100">

<path d="M81.4,52.4c0.3,1,0.4,2,0.4,3c0,2.2-0.6,4.4-1.7,6.3c0.1,0.6,0.1,1.3,0.1,1.9c0,2.8-0.9,5.6-2.6,7.8
		c0.1,8.2-5.5,13.1-13.6,13.1h-1.6h-4.1c-6.2,0-12-1.8-17.7-3.8c-1.3-0.4-4.8-1.7-6-1.7H22.1c-3.1,0-5.6-2.5-5.6-5.6V45.3
		c0-3.1,2.5-5.6,5.6-5.6h12c1.7-1.1,4.7-5.1,6-6.8c1.5-1.9,3-3.8,4.7-5.6c2.6-2.8,1.2-9.7,5.6-14c1-1,2.4-1.6,3.9-1.6
		c4.5,0,8.9,1.6,11,5.8c1.4,2.7,1.5,5.2,1.5,8.1c0,3.1-0.8,5.7-2.1,8.4h7.7c6,0,11.2,5.1,11.2,11.1C83.5,47.8,82.8,50.3,81.4,52.4z
		 M24.9,67.6c-1.5,0-2.8,1.3-2.8,2.8s1.3,2.8,2.8,2.8s2.8-1.3,2.8-2.8S26.4,67.6,24.9,67.6z M72.3,39.7H57c0-5.1,4.2-8.8,4.2-14
		c0-5.1-1-8.4-7-8.4c-2.8,2.8-1.4,9.5-5.6,14c-1.2,1.3-2.3,2.6-3.4,4c-2,2.5-7.2,10-10.6,10h-1.4v27.9h1.4c2.4,0,6.5,1.6,8.8,2.4
		c4.8,1.7,9.8,3.2,14.9,3.2h5.3c4.9,0,8.4-2,8.4-7.3c0-0.8-0.1-1.7-0.2-2.4c1.8-1,2.8-3.5,2.8-5.5c0-1-0.3-2.1-0.8-3
		c1.5-1.4,2.3-3.1,2.3-5.2c0-1.4-0.6-3.4-1.5-4.5c2.1,0,3.3-4,3.3-5.6C77.9,42.3,75.3,39.7,72.3,39.7z"/>

</svg>
